# xmcd
#
# Track frame offsets:
#	150
#	23041
#	43501
#	74266
#	106665
#	129038
#	147293
#	164885
#	203365
#	233400
#	283811
#
# Disc length: 4196 seconds
#
# Revision: 3
# Processed by: cddbd v1.5.2PL0 Copyright (c) Steve Scherf et al.
# Submitted via: EZCDAudioConverter 1.3.4.1
#
DISCID=8d10620b
DTITLE=East Of Eden - Mercator Projected
DYEAR=1969
DGENRE=
TTITLE0=Northern Hemisphere
TTITLE1=Isadora
TTITLE2=Waterways
TTITLE3=Centaur Woman
TTITLE4=Bathers
TTITLE5=Communion
TTITLE6=Moth
TTITLE7=In The Stable Of The Sphinx
TTITLE8=Waterways [Demo]
TTITLE9=In The Stable Of The Sphinx [Demo]
TTITLE10=Eight Miles High
EXTD=
EXTT0=
EXTT1=
EXTT2=
EXTT3=
EXTT4=
EXTT5=
EXTT6=
EXTT7=
EXTT8=
EXTT9=
EXTT10=
PLAYORDER=
